# xmcd
#
# Track frame offsets:
#	150
#	19566
#	38597
#	58423
#	77596
#	98309
#	118495
#	135775
#	150181
#	164153
#	184427
#	208527
#	223453
#	239538
#	255024
#	284025
#
# Disc length: 3800 seconds
#
# Revision: 1
# Processed by: cddbd v1.5.1PL0 Copyright (c) Steve Scherf et al.
# Submitted via: audiograbber 1.83.01
#
DISCID=de0ed610
DTITLE=Sound Choice - Sc8923
DYEAR=2005
DGENRE=Karaoke
TTITLE0=Adkins, Trace - Honky Tonk Badonkadonk
TTITLE1=Evans, Sara - A Real Fine Place To Start
TTITLE2=Urban, Keith - Making Memories Of Us
TTITLE3=McEntire, Reba - My Sister
TTITLE4=Big and Rich - Live This Life
TTITLE5=Lambert, Miranda - Bring Me Down
TTITLE6=Sugarland - Something More
TTITLE7=Jackson, Alan - The Talkin' Song  Repair Blues
TTITLE8=Krauss, Alison, and Union Station - Restless
TTITLE9=Strait, George - You'll Be There
TTITLE10=McGraw, Tim - Old Town New
TTITLE11=Lambert, Miranda - Kerosene
TTITLE12=Judd, Cledus T. - Paycheck Woman
TTITLE13=McComas, Brian - The Middle Of Nowhere
TTITLE14=Womack, Lee Ann - He Oughta Know That By Now
TTITLE15=Data Track - Data Track
EXTD=
EXTT0=
EXTT1=
EXTT2=
EXTT3=
EXTT4=
EXTT5=
EXTT6=
EXTT7=
EXTT8=
EXTT9=
EXTT10=
EXTT11=
EXTT12=
EXTT13=
EXTT14=
EXTT15=
PLAYORDER=
